<?xml version="1.0" encoding="UTF-8"?>
<svg  viewBox="0 0 99 80" width="99" height="80">
    <g>
        <path d="M77.6 24.7c0-5.8-2.3-10.2-3-11.6a15.4 15.4 0 00-25.4-2.7 15.3 15.3 0 00-25 2.2s-3.3 5-3.4 12.1l1-3.6c-.2 2.2-.2 4.9.5 8 0 0 0-2.4.3-5a15.4 15.4 0 0014.9 11.6c4.7 0 8.3.5 11.1-2.8 2.9 3.3 7.7 2.8 12.4 2.8 7.1 0 13.1-4.9 14.8-11.5.4 2.5.4 4.8.4 4.8.6-3 .6-5.7.4-7.9.7 2 1 3.6 1 3.6z" fill="#3C4654"></path>
        <path d="M46.3 13.5S44.4 4 16.5 4c0 0 24.2-7.2 29.8 9.5zm4.5 0S52.7 4 80.6 4c0 0-24.2-7.2-29.8 9.5z" fill="#3C4654"></path>
        <path d="M74.8.6s-14-3-26 4.4C36.9-2.5 23 .6 23 .6c34.6 6.2 22.6 26 22.6 26h6.6S40.2 6.8 74.8.6z" fill="url(#p0)"></path>
        <g>
            <rect x="9.8" y="33.4" width="78.4" height="56.3" rx="1" fill="#fff" stroke="#9A9393" stroke-width="2"></rect>
        </g>
        <path d="M89.2 36.8s4 .2 6.8 4.2c3 4 6 18.2-21.1 15.6 0 0 0-3.5 4.8-3.7 4.7-.2 9.4-3.8-1.4-3 0 0-.6-2.7 3.9-3.4 4.4-.7 1.5-2.5.5-2.6 0 0 .7-2.4 2.7-2.7 2-.4 3.8.4 3.8-4.4z" fill="#3C4654"></path>
        <path d="M95.3 44S99 55 81.1 55.7c0 0 14.5-3.8 14.2-11.9" fill="#2C343F"></path>
        <path d="M8.7 36.8s-4 .2-6.9 4.2C-1 45-4 59.2 23 56.6c0 0-.1-3.5-4.8-3.7-4.7-.2-9.5-3.8 1.3-3 0 0 .6-2.7-3.8-3.4-4.4-.7-1.6-2.5-.5-2.6 0 0-.8-2.4-2.7-2.7-2-.4-3.4.4-3.8-4.4z" fill="#3C4654"></path>
        <path d="M2 44S-1.6 55 16.2 55.7c0 0-14.4-3.8-14.2-11.9" fill="#2C343F"></path>
        <path d="M45.4 26s3.7-4.3 7 0c0 0 0 6.6-3.5 8.7 0 0-3.8-2.2-3.5-8.7z" fill="#2C343F"></path>
        <path d="M48.2 19.6a10.5 10.5 0 11-21 0 10.5 10.5 0 0121 0z" fill="#2C343F"></path>
        <path d="M47.7 19.5a9.8 9.8 0 11-19.7 0 9.8 9.8 0 0119.7 0z" fill="url(#p4)"></path>
        <path d="M38 21.4a12 12 0 009.3-4.4 9.8 9.8 0 00-18.8-.4 12 12 0 009.5 4.8z" fill="url(#p5)"></path>
        <path d="M43.4 19.4a5.1 5.1 0 11-10.3 0 5.1 5.1 0 0110.3 0z" fill="url(#p6)"></path>
        <path d="M42.5 17.8s0-.2-.2-.3l-1-.5-.2-1a.4.4 0 00-.2-.4.4.4 0 00-.4.1l-.7.8-1.1-.2a.4.4 0 00-.4.2v.4l.5 1-.5 1a.4.4 0 00.3.5l1.1-.2.8.8h.4c.1 0 .2 0 .2-.2l.2-1.1 1-.5.2-.3" fill="#fff"></path>
        <path d="M70.1 19.6a10.5 10.5 0 11-20.9 0 10.5 10.5 0 0121 0z" fill="url(#p7)"></path>
        <path d="M69.5 19.5a9.8 9.8 0 11-19.7 0 9.8 9.8 0 0119.7 0z" fill="url(#p8)"></path>
        <path d="M60 21.4a12 12 0 009.3-4.4 9.8 9.8 0 00-19-.4 12 12 0 009.7 4.8z" fill="url(#p9)"></path>
        <path d="M65.6 19.4a5.1 5.1 0 11-10.3 0 5.1 5.1 0 0110.3 0z" fill="url(#p10)"></path>
        <path d="M64.4 17.9c0-.2 0-.3-.2-.4l-1-.5-.1-1a.4.4 0 00-.3-.4.4.4 0 00-.3.1l-.8.8-1.1-.2a.4.4 0 00-.4.6l.5 1-.5 1v.3l.4.2 1-.2.8.8h.2a.4.4 0 00.4-.2l.2-1.1 1-.5.2-.3" fill="#fff"></path>
        <path d="M62.6 44.3c0 .6-.4 1-1 1H36.1a1 1 0 01-1-1v-5.8c0-.5.5-1 1-1h25.5c.6 0 1 .5 1 1v5.8z" fill="#CEEEE9"></path>
        <rect x="23.6" y="48" width="23.6" height="8" rx="1" fill="#F7E3F7"></rect>
        <path d="M32.2 43.5H16.4a1 1 0 01-1-1v-2a1 1 0 011-1h15.8a1 1 0 011 1v2a1 1 0 01-1 1zm-5.9 29.7H13.4a1 1 0 01-1-1v-2a1 1 0 011-1h12.9a1 1 0 011 1v2a1 1 0 01-1 1zm19 0H30.4a1 1 0 01-1-1v-2a1 1 0 011-1h14.9a1 1 0 011 1v2a1 1 0 01-1 1zm25.9 0h-21a1 1 0 01-1-1v-2a1 1 0 011-1h21a1 1 0 011 1v2a1 1 0 01-1 1zm11.4 0h-6.7a1 1 0 01-1-1v-2a1 1 0 011-1h6.7a1 1 0 011 1v2a1 1 0 01-1 1z" fill="#E1E3E3"></path>
        <path d="M59.3 43.5H45.8a1 1 0 01-1-1v-2a1 1 0 011-1h13.5a1 1 0 011 1v2a1 1 0 01-1 1zm-17.2 0h-3.6a1 1 0 01-1-1v-2a1 1 0 011-1H42a1 1 0 011 1v2a1 1 0 01-1 1z" fill="#1EB4B4"></path>
        <path d="M49.1 65.6c0 .5-.4 1-1 1H13.4a1 1 0 01-1-1v-5.9c0-.5.5-1 1-1h34.7c.6 0 1 .5 1 1v5.9z" fill="#BDDDFF"></path>
        <path d="M32.5 64.5H16.3a1 1 0 01-1-1v-1.8a1 1 0 011-1h16.2a1 1 0 011 1v1.8a1 1 0 01-1 1zm12.8 0h-9a1 1 0 01-1-1v-1.8a1 1 0 011-1h9a1 1 0 011 1v1.8a1 1 0 01-1 1z" fill="#3C8ADD"></path>
        <path d="M80.1 43.5H66.4a1 1 0 01-1-1v-2a1 1 0 011-1H80a1 1 0 011 1v2a1 1 0 01-1 1z" fill="#E1E3E3"></path>
        <rect x="62.3" y="58.5" width="21.3" height="7.8" rx="1" fill="#FDE9C4"></rect>
        <path d="M44 53.8H26.8a1 1 0 01-1-1V51a1 1 0 011-1H44a1 1 0 011 1v2a1 1 0 01-1 1" fill="#932994"></path>
        <path d="M80 64.4H66a1 1 0 01-1-1v-1.8a1 1 0 011-1h14a1 1 0 011 1v1.8a1 1 0 01-1 1z" fill="#F4B83B"></path>
        <path d="M58.7 64.4h-6a1 1 0 01-1-1v-1.8a1 1 0 011-1h6a1 1 0 011 1v1.8a1 1 0 01-1 1zm15.6-10.6H70a1 1 0 01-1-1V51a1 1 0 011-1h4.3a1 1 0 011 1v2a1 1 0 01-1 1zm-9.4 0H50.5a1 1 0 01-1-1v-2a1 1 0 011-1H65a1 1 0 011 1v2a1 1 0 01-1 1z" fill="#E1E3E3"></path>
    </g>
</svg>